<svg width="32" height="30" viewBox="0 0 32 30" fill="none" xmlns="http://www.w3.org/2000/svg">
<path d="M12.3298 2.7579C14.2645 3.5479 17.0568 3.5479 18.9915 2.7579C20.5635 2.11601 22.3218 2.05648 23.9442 2.7291C27.3687 4.14875 28.9042 8.29802 27.4125 12.0404L26.4153 14.4386C26.1796 15.0047 25.615 15.375 24.9878 15.375H6.33358C5.70642 15.375 5.14192 15.0047 4.90628 14.4386L3.90796 12.0407C2.41632 8.29832 3.9528 4.14875 7.37721 2.7291C8.99961 2.05649 10.7579 2.11601 12.3298 2.7579Z" fill="url(#paint0_linear_11_1772)"/>
<path d="M12.3298 2.7579C14.2645 3.5479 17.0568 3.5479 18.9915 2.7579C20.5635 2.11601 22.3218 2.05648 23.9442 2.7291C27.3687 4.14875 28.9042 8.29802 27.4125 12.0404L26.4153 14.4386C26.1796 15.0047 25.615 15.375 24.9878 15.375H6.33358C5.70642 15.375 5.14192 15.0047 4.90628 14.4386L3.90796 12.0407C2.41632 8.29832 3.9528 4.14875 7.37721 2.7291C8.99961 2.05649 10.7579 2.11601 12.3298 2.7579Z" fill="url(#paint1_linear_11_1772)" fill-opacity="0.1"/>
<path d="M12.3298 2.7579C14.2645 3.5479 17.0568 3.5479 18.9915 2.7579C20.5635 2.11601 22.3218 2.05648 23.9442 2.7291C27.3687 4.14875 28.9042 8.29802 27.4125 12.0404L26.4153 14.4386C26.1796 15.0047 25.615 15.375 24.9878 15.375H6.33358C5.70642 15.375 5.14192 15.0047 4.90628 14.4386L3.90796 12.0407C2.41632 8.29832 3.9528 4.14875 7.37721 2.7291C8.99961 2.05649 10.7579 2.11601 12.3298 2.7579Z" fill="url(#paint2_linear_11_1772)" fill-opacity="0.05"/>
<path d="M8.72992 16.5H22.5915L19.6957 24.9218C19.1147 26.6113 17.49 27.75 15.6607 27.75C13.8314 27.75 12.2067 26.6113 11.6258 24.9218L8.72992 16.5Z" fill="url(#paint3_linear_11_1772)"/>
<path d="M4.87949 16.3125C4.87949 15.7947 5.31045 15.375 5.8421 15.375H25.4794C26.011 15.375 26.442 15.7947 26.442 16.3125C26.442 16.8303 26.011 17.25 25.4794 17.25H5.8421C5.31045 17.25 4.87949 16.8303 4.87949 16.3125Z" fill="url(#paint4_linear_11_1772)"/>
<path d="M10.6552 24.75C10.6552 24.3358 10.9999 24 11.4252 24H19.8962C20.3215 24 20.6663 24.3358 20.6663 24.75C20.6663 25.1643 20.3215 25.5 19.8962 25.5H11.4252C10.9999 25.5 10.6552 25.1643 10.6552 24.75Z" fill="url(#paint5_linear_11_1772)"/>
<path d="M9.69254 22.125C9.69254 21.7108 10.0373 21.375 10.4626 21.375H20.8588C21.2841 21.375 21.6289 21.7108 21.6289 22.125C21.6289 22.5392 21.2841 22.875 20.8588 22.875H10.4626C10.0373 22.875 9.69254 22.5392 9.69254 22.125Z" fill="url(#paint6_linear_11_1772)"/>
<path d="M8.72992 19.5C8.72992 19.0858 9.07471 18.75 9.50001 18.75H21.8214C22.2467 18.75 22.5915 19.0858 22.5915 19.5C22.5915 19.9142 22.2467 20.25 21.8214 20.25H9.50001C9.07471 20.25 8.72992 19.9142 8.72992 19.5Z" fill="url(#paint7_linear_11_1772)"/>
<defs>
<linearGradient id="paint0_linear_11_1772" x1="25.6266" y1="9" x2="80.8529" y2="110.757" gradientUnits="userSpaceOnUse">
<stop stop-color="#F0F6F9"/>
<stop offset="1" stop-color="#CDDFF2"/>
</linearGradient>
<linearGradient id="paint1_linear_11_1772" x1="61.096" y1="63.75" x2="61.096" y2="59.25" gradientUnits="userSpaceOnUse">
<stop offset="0.241809" stop-color="#065099"/>
<stop offset="1" stop-color="#DFEBF6" stop-opacity="0.47"/>
</linearGradient>
<linearGradient id="paint2_linear_11_1772" x1="61.8661" y1="61.5" x2="61.8661" y2="55.5" gradientUnits="userSpaceOnUse">
<stop stop-color="#065099"/>
<stop offset="1" stop-color="#065099" stop-opacity="0"/>
</linearGradient>
<linearGradient id="paint3_linear_11_1772" x1="89.5893" y1="99.4092" x2="26.8473" y2="78.0943" gradientUnits="userSpaceOnUse">
<stop stop-color="#BCC1D6"/>
<stop offset="1" stop-color="#E9ECFA"/>
</linearGradient>
<linearGradient id="paint4_linear_11_1772" x1="46.5165" y1="61.5" x2="69.8648" y2="65.4567" gradientUnits="userSpaceOnUse">
<stop stop-color="#F0F3FF"/>
<stop offset="1" stop-color="#E1E5F5"/>
</linearGradient>
<linearGradient id="paint5_linear_11_1772" x1="54.7394" y1="96" x2="62.8907" y2="98.1954" gradientUnits="userSpaceOnUse">
<stop stop-color="#F1F4FF"/>
<stop offset="1" stop-color="#D5DAF0"/>
</linearGradient>
<linearGradient id="paint6_linear_11_1772" x1="56.6439" y1="85.5" x2="66.5079" y2="88.4063" gradientUnits="userSpaceOnUse">
<stop stop-color="#F1F4FF"/>
<stop offset="1" stop-color="#D5DAF0"/>
</linearGradient>
<linearGradient id="paint7_linear_11_1772" x1="56.4755" y1="75" x2="67.9861" y2="78.7781" gradientUnits="userSpaceOnUse">
<stop stop-color="#F1F4FF"/>
<stop offset="1" stop-color="#D5DAF0"/>
</linearGradient>
</defs>
</svg>
