<svg width="31" height="30" viewBox="0 0 31 30" fill="none" xmlns="http://www.w3.org/2000/svg">
<path d="M4.0463 5.625C2.99013 5.625 2.13394 6.48119 2.13394 7.53736V10.9411C2.13394 13.0021 3.80907 14.6706 5.87005 14.6624L15.0006 14.626C15.1706 14.6254 15.3385 14.6632 15.4918 14.7367L26.0936 19.8241C26.615 20.0743 27.2399 19.9369 27.6082 19.491C28.0406 18.9674 27.9797 18.1953 27.4706 17.746L18.4642 9.79888C17.6314 9.06397 16.4902 8.78591 15.4127 9.05531L6.77619 11.2144C5.90306 11.4327 5.03561 10.8383 4.92397 9.94527L4.42582 5.96003C4.40189 5.76863 4.23919 5.625 4.0463 5.625Z" fill="url(#paint0_linear_11_1750)"/>
<mask id="mask0_11_1750" style="mask-type:alpha" maskUnits="userSpaceOnUse" x="2" y="5" width="26" height="15">
<path d="M4.0463 5.625C2.99013 5.625 2.13394 6.48119 2.13394 7.53736V10.9411C2.13394 13.0021 3.80907 14.6706 5.87005 14.6624L15.0006 14.626C15.1706 14.6254 15.3385 14.6632 15.4918 14.7367L26.0936 19.8241C26.615 20.0743 27.2399 19.9369 27.6082 19.491C28.0406 18.9674 27.9797 18.1953 27.4706 17.746L18.4642 9.79888C17.6314 9.06397 16.4902 8.78591 15.4127 9.05531L6.77619 11.2144C5.90306 11.4327 5.03561 10.8383 4.92397 9.94527L4.42582 5.96003C4.40189 5.76863 4.23919 5.625 4.0463 5.625Z" fill="url(#paint1_linear_11_1750)"/>
</mask>
<g mask="url(#mask0_11_1750)">
<path d="M18.6339 8.625H13.0089V16.125H18.6339V8.625Z" fill="url(#paint2_linear_11_1750)"/>
<path d="M16.0089 8.625H14.1339V16.125H16.0089V8.625Z" fill="url(#paint3_linear_11_1750)"/>
<path d="M7.19391 15.7545L9.00502 16.2397L10.9461 8.99529L9.13506 8.51001L7.19391 15.7545Z" fill="url(#paint4_linear_11_1750)"/>
</g>
<path d="M5.50894 3.78736C5.50894 2.73119 6.36513 1.875 7.4213 1.875H10.825C12.886 1.875 14.5545 3.55013 14.5463 5.61111L14.5099 14.7417C14.5093 14.9117 14.5471 15.0796 14.6206 15.2329L19.708 25.8347C19.9582 26.3561 19.8208 26.981 19.3749 27.3493C18.8513 27.7817 18.0792 27.7208 17.6299 27.2117L9.68282 18.2053C8.94791 17.3725 8.66985 16.2313 8.93925 15.1538L11.0983 6.51725C11.3166 5.64412 10.7222 4.77667 9.82921 4.66503L5.84397 4.16688C5.65257 4.14295 5.50894 3.98025 5.50894 3.78736Z" fill="url(#paint5_linear_11_1750)"/>
<mask id="mask1_11_1750" style="mask-type:alpha" maskUnits="userSpaceOnUse" x="5" y="1" width="15" height="27">
<path d="M5.50894 3.78736C5.50894 2.73119 6.36513 1.875 7.4213 1.875H10.825C12.886 1.875 14.5545 3.55013 14.5463 5.61111L14.5099 14.7417C14.5093 14.9117 14.5471 15.0796 14.6206 15.2329L19.708 25.8347C19.9582 26.3561 19.8208 26.981 19.3749 27.3493C18.8513 27.7817 18.0792 27.7208 17.6299 27.2117L9.68282 18.2053C8.94791 17.3725 8.66985 16.2313 8.93925 15.1538L11.0983 6.51725C11.3166 5.64412 10.7222 4.77667 9.82921 4.66503L5.84397 4.16688C5.65257 4.14295 5.50894 3.98025 5.50894 3.78736Z" fill="url(#paint6_linear_11_1750)"/>
</mask>
<g mask="url(#mask1_11_1750)">
<path d="M8.75297 5.625H11.1341L13.5716 22.6875L8.06363 20.2281L8.75297 5.625Z" fill="url(#paint7_linear_11_1750)"/>
</g>
<g filter="url(#filter0_d_11_1750)">
<path d="M13.0783 13.1742C13.5177 12.7348 13.5177 12.0225 13.0783 11.5832L12.8127 11.3175C12.3733 10.8782 11.661 10.8782 11.2217 11.3175L10.8267 11.7125C10.3873 12.1519 10.3873 12.8642 10.8267 13.3035L11.0923 13.5692C11.5317 14.0085 12.244 14.0085 12.6833 13.5692L13.0783 13.1742Z" fill="url(#paint8_linear_11_1750)"/>
</g>
<path d="M12.6517 12.6759C12.7981 12.5295 12.7981 12.292 12.6517 12.1456L12.2502 11.7441C12.1037 11.5977 11.8663 11.5977 11.7199 11.7441L11.2535 12.2105C11.1071 12.3569 11.1071 12.5944 11.2535 12.7408L11.655 13.1423C11.8014 13.2887 12.0388 13.2887 12.1853 13.1423L12.6517 12.6759Z" fill="url(#paint9_linear_11_1750)"/>
<defs>
<filter id="filter0_d_11_1750" x="7.49719" y="8.98804" width="10.9107" height="10.9106" filterUnits="userSpaceOnUse" color-interpolation-filters="sRGB">
<feFlood flood-opacity="0" result="BackgroundImageFix"/>
<feColorMatrix in="SourceAlpha" type="matrix" values="0 0 0 0 0 0 0 0 0 0 0 0 0 0 0 0 0 0 127 0" result="hardAlpha"/>
<feOffset dx="1" dy="2"/>
<feGaussianBlur stdDeviation="2"/>
<feComposite in2="hardAlpha" operator="out"/>
<feColorMatrix type="matrix" values="0 0 0 0 0.0684722 0 0 0 0 0.0823278 0 0 0 0 0.414861 0 0 0 0.15 0"/>
<feBlend mode="normal" in2="BackgroundImageFix" result="effect1_dropShadow_11_1750"/>
<feBlend mode="normal" in="SourceGraphic" in2="effect1_dropShadow_11_1750" result="shape"/>
</filter>
<linearGradient id="paint0_linear_11_1750" x1="2.13394" y1="8.25" x2="28.3839" y2="15.75" gradientUnits="userSpaceOnUse">
<stop stop-color="#DFE3F3"/>
<stop offset="1" stop-color="#CCD0E3"/>
</linearGradient>
<linearGradient id="paint1_linear_11_1750" x1="2.13394" y1="8.25" x2="28.3839" y2="15.75" gradientUnits="userSpaceOnUse">
<stop stop-color="#DFE3F3"/>
<stop offset="1" stop-color="#CCD0E3"/>
</linearGradient>
<linearGradient id="paint2_linear_11_1750" x1="11.4018" y1="11.625" x2="15.8214" y2="11.625" gradientUnits="userSpaceOnUse">
<stop stop-color="#9099C4"/>
<stop offset="1" stop-color="#9099C4" stop-opacity="0"/>
</linearGradient>
<linearGradient id="paint3_linear_11_1750" x1="13.5982" y1="11.625" x2="15.0714" y2="11.625" gradientUnits="userSpaceOnUse">
<stop stop-color="#9099C4"/>
<stop offset="1" stop-color="#9099C4" stop-opacity="0"/>
</linearGradient>
<linearGradient id="paint4_linear_11_1750" x1="10.2989" y1="13.4806" x2="8.87593" y2="13.0993" gradientUnits="userSpaceOnUse">
<stop stop-color="#9099C4"/>
<stop offset="1" stop-color="#9099C4" stop-opacity="0"/>
</linearGradient>
<linearGradient id="paint5_linear_11_1750" x1="9.07144" y1="1.3125" x2="15.6339" y2="27.75" gradientUnits="userSpaceOnUse">
<stop stop-color="#E9ECF7"/>
<stop offset="1" stop-color="#CCD0E3"/>
</linearGradient>
<linearGradient id="paint6_linear_11_1750" x1="9.07144" y1="1.3125" x2="15.6339" y2="27.75" gradientUnits="userSpaceOnUse">
<stop stop-color="#E9ECF7"/>
<stop offset="1" stop-color="#CCD0E3"/>
</linearGradient>
<linearGradient id="paint7_linear_11_1750" x1="5.8841" y1="12.375" x2="10.9466" y2="12.75" gradientUnits="userSpaceOnUse">
<stop stop-color="white"/>
<stop offset="1" stop-color="white" stop-opacity="0"/>
</linearGradient>
<linearGradient id="paint8_linear_11_1750" x1="11.1741" y1="11.4335" x2="12.7939" y2="13.5162" gradientUnits="userSpaceOnUse">
<stop stop-color="#F7F7FB"/>
<stop offset="1" stop-color="#DEE1F0"/>
</linearGradient>
<linearGradient id="paint9_linear_11_1750" x1="7.00934" y1="6.37491" x2="12.3748" y2="12.9816" gradientUnits="userSpaceOnUse">
<stop stop-color="#C5CAE2"/>
<stop offset="1" stop-color="#D1D5E7"/>
</linearGradient>
</defs>
</svg>
