<svg width="30" height="30" viewBox="0 0 30 30" fill="none" xmlns="http://www.w3.org/2000/svg">
<g id="80 /  crown-alt">
<g id="Rectangle 665">
<path d="M9.96637 15.4804C10.0966 14.7677 10.7175 14.25 11.4419 14.25H18.5615C19.2839 14.25 19.9032 14.7663 20.033 15.477C20.1627 16.1867 20.1541 16.9362 20.4337 17.6012C20.7895 18.4475 21.5545 19.0037 22.311 19.4854L7.64209 19.5088C8.38964 19.0329 9.16416 18.3621 9.53985 17.5444C9.82741 16.9186 9.83432 16.203 9.95812 15.5255L9.96637 15.4804Z" fill="url(#paint0_linear_56_572)"/>
<path d="M9.96637 15.4804C10.0966 14.7677 10.7175 14.25 11.4419 14.25H18.5615C19.2839 14.25 19.9032 14.7663 20.033 15.477C20.1627 16.1867 20.1541 16.9362 20.4337 17.6012C20.7895 18.4475 21.5545 19.0037 22.311 19.4854L7.64209 19.5088C8.38964 19.0329 9.16416 18.3621 9.53985 17.5444C9.82741 16.9186 9.83432 16.203 9.95812 15.5255L9.96637 15.4804Z" fill="url(#paint1_linear_56_572)" fill-opacity="0.4"/>
<path d="M9.96637 15.4804C10.0966 14.7677 10.7175 14.25 11.4419 14.25H18.5615C19.2839 14.25 19.9032 14.7663 20.033 15.477C20.1627 16.1867 20.1541 16.9362 20.4337 17.6012C20.7895 18.4475 21.5545 19.0037 22.311 19.4854L7.64209 19.5088C8.38964 19.0329 9.16416 18.3621 9.53985 17.5444C9.82741 16.9186 9.83432 16.203 9.95812 15.5255L9.96637 15.4804Z" fill="url(#paint2_linear_56_572)" fill-opacity="0.05"/>
</g>
<g id="Intersect">
<path d="M22.8234 20.7523C22.9779 20.269 22.7761 19.745 22.3461 19.5012C22.2894 19.4691 22.2269 19.449 22.1636 19.433L16.6518 18.0419C15.5676 17.7683 14.4324 17.7683 13.3482 18.0419L7.83637 19.4329C7.77312 19.4489 7.7106 19.469 7.65386 19.5012C7.22393 19.745 7.02214 20.2689 7.17663 20.7522C7.67109 22.299 7.90504 23.3629 8.29039 25.1933L8.74344 27.3453C8.97093 28.2445 9.77436 28.874 10.6954 28.875L10.6977 28.875L10.7 28.875C11.6892 28.8739 12.5318 28.1501 12.6888 27.1661L13.6164 21.4125C13.7256 20.7282 14.3119 20.1977 15 20.1977C15.6881 20.1977 16.2744 20.7282 16.3837 21.4126L17.3112 27.1661C17.4683 28.1501 18.3108 28.8739 19.3 28.875L19.3023 28.875L19.3046 28.875C20.2257 28.874 21.0291 28.2445 21.2566 27.3453L21.7096 25.1933C22.095 23.3629 22.3289 22.299 22.8234 20.7523Z" fill="url(#paint3_linear_56_572)"/>
<path d="M22.8234 20.7523C22.9779 20.269 22.7761 19.745 22.3461 19.5012C22.2894 19.4691 22.2269 19.449 22.1636 19.433L16.6518 18.0419C15.5676 17.7683 14.4324 17.7683 13.3482 18.0419L7.83637 19.4329C7.77312 19.4489 7.7106 19.469 7.65386 19.5012C7.22393 19.745 7.02214 20.2689 7.17663 20.7522C7.67109 22.299 7.90504 23.3629 8.29039 25.1933L8.74344 27.3453C8.97093 28.2445 9.77436 28.874 10.6954 28.875L10.6977 28.875L10.7 28.875C11.6892 28.8739 12.5318 28.1501 12.6888 27.1661L13.6164 21.4125C13.7256 20.7282 14.3119 20.1977 15 20.1977C15.6881 20.1977 16.2744 20.7282 16.3837 21.4126L17.3112 27.1661C17.4683 28.1501 18.3108 28.8739 19.3 28.875L19.3023 28.875L19.3046 28.875C20.2257 28.874 21.0291 28.2445 21.2566 27.3453L21.7096 25.1933C22.095 23.3629 22.3289 22.299 22.8234 20.7523Z" fill="url(#paint4_radial_56_572)" fill-opacity="0.2"/>
</g>
<path id="Intersect_2" d="M12.0601 1.60438C13.7677 2.35005 16.2322 2.35006 17.9398 1.60439C18.6567 1.29134 19.4175 1.12504 20.183 1.125H20.1836C20.8994 1.12504 21.6192 1.27046 22.3111 1.5772C25.3335 2.91718 26.6888 6.83355 25.3723 10.3658L25.3731 10.3662C25.2239 10.6973 25.0702 11.0298 24.92 11.3638C24.6994 11.8546 24.1623 12.1084 23.6671 11.9559C23.6122 11.939 23.5578 11.9204 23.502 11.9073L16.7163 10.3121C15.5875 10.0468 14.4125 10.0468 13.2837 10.3121L6.49788 11.9073C6.44205 11.9204 6.38759 11.939 6.33278 11.9559C5.8375 12.1084 5.30049 11.8545 5.07988 11.3637C4.92978 11.0298 4.77611 10.6973 4.6269 10.3662L4.62771 10.3658C3.31119 6.83355 4.66648 2.91718 7.6889 1.5772C9.12083 0.942349 10.6727 0.998532 12.0601 1.60438Z" fill="url(#paint5_linear_56_572)"/>
</g>
<defs>
<linearGradient id="paint0_linear_56_572" x1="15" y1="13.77" x2="15" y2="19.35" gradientUnits="userSpaceOnUse">
<stop stop-color="#AAC8E3"/>
<stop offset="1" stop-color="#C8DBED"/>
</linearGradient>
<linearGradient id="paint1_linear_56_572" x1="8.72322" y1="16.0419" x2="10.5893" y2="16.0419" gradientUnits="userSpaceOnUse">
<stop stop-color="#F1F7FA"/>
<stop offset="1" stop-color="#F0F7FA" stop-opacity="0"/>
</linearGradient>
<linearGradient id="paint2_linear_56_572" x1="15" y1="13.77" x2="15" y2="15.39" gradientUnits="userSpaceOnUse">
<stop stop-color="#065099"/>
<stop offset="1" stop-color="#065099" stop-opacity="0"/>
</linearGradient>
<linearGradient id="paint3_linear_56_572" x1="8.6488" y1="13.2559" x2="15.1202" y2="28.8251" gradientUnits="userSpaceOnUse">
<stop stop-color="#E8F2F8"/>
<stop offset="1" stop-color="#CDDFF2"/>
</linearGradient>
<radialGradient id="paint4_radial_56_572" cx="0" cy="0" r="1" gradientUnits="userSpaceOnUse" gradientTransform="translate(13.1118 16.0326) rotate(71.222) scale(5.86567 7.26214)">
<stop stop-color="white"/>
<stop offset="1" stop-color="#EDF5F8" stop-opacity="0"/>
</radialGradient>
<linearGradient id="paint5_linear_56_572" x1="7.8632" y1="2.87147" x2="23.4235" y2="13.3008" gradientUnits="userSpaceOnUse">
<stop stop-color="#F0F6F9"/>
<stop offset="1" stop-color="#CDDFF2"/>
</linearGradient>
</defs>
</svg>
