<svg width="30" height="30" viewBox="0 0 30 30" fill="none" xmlns="http://www.w3.org/2000/svg">
<g clip-path="url(#clip0_56_576)">
<rect x="10.125" y="15.75" width="1.125" height="3.75" fill="url(#paint0_linear_56_576)"/>
<circle cx="10.6875" cy="8.8125" r="7.3125" fill="url(#paint1_linear_56_576)"/>
<circle cx="10.6875" cy="8.8125" r="6.1875" fill="url(#paint2_linear_56_576)"/>
<ellipse opacity="0.55" cx="12.2494" cy="11.2378" rx="4.16044" ry="2.99173" transform="rotate(-35.8938 12.2494 11.2378)" fill="url(#paint3_linear_56_576)"/>
<g opacity="0.3" filter="url(#filter0_f_56_576)">
<ellipse cx="21.5108" cy="17.5108" rx="11.1852" ry="6.50778" transform="rotate(135 21.5108 17.5108)" fill="url(#paint4_linear_56_576)"/>
</g>
<g filter="url(#filter1_f_56_576)">
<path d="M7.68004 3.42337L7.60295 3.05555C7.56063 2.85361 7.38255 2.70898 7.17622 2.70898C6.96411 2.70898 6.78277 2.86164 6.74661 3.07065L6.70211 3.32778C6.51787 4.3926 5.6967 5.23388 4.63665 5.44383L4.07362 5.55534C3.88226 5.59324 3.74438 5.76112 3.74438 5.95619C3.74438 6.15738 3.89082 6.32864 4.08957 6.35987L4.5258 6.42843C5.64242 6.60391 6.52088 7.47525 6.70545 8.5904L6.7493 8.85535C6.78385 9.0641 6.96436 9.21719 7.17595 9.21719C7.38202 9.21719 7.55947 9.07179 7.59997 8.86974L7.6958 8.3917C7.89711 7.38756 8.70009 6.61357 9.71095 6.4493L10.25 6.36171C10.449 6.32938 10.5951 6.15754 10.5951 5.95597C10.5951 5.76073 10.4578 5.59243 10.2665 5.55326L9.704 5.43806C8.68806 5.23 7.89276 4.43835 7.68004 3.42337Z" fill="url(#paint5_linear_56_576)"/>
</g>
<path d="M7.52516 4.15749L7.36227 2.87619C7.35012 2.78062 7.26881 2.70898 7.17247 2.70898C7.07382 2.70898 6.99134 2.78399 6.982 2.88219L6.86092 4.1546C6.78968 4.90336 6.20561 5.50089 5.45867 5.58918L3.9114 5.77208C3.81614 5.78334 3.74438 5.86408 3.74438 5.96C3.74438 6.05852 3.81996 6.14055 3.91815 6.1486L5.37754 6.26824C6.16456 6.33276 6.79133 6.95363 6.86329 7.74L6.98263 9.04403C6.99161 9.14212 7.07387 9.21719 7.17237 9.21719C7.26865 9.21719 7.3498 9.14536 7.36149 9.04979L7.52187 7.73797C7.61861 6.94673 8.257 6.33179 9.05131 6.26472L10.4213 6.14904C10.5196 6.14074 10.5951 6.05854 10.5951 5.95991C10.5951 5.86396 10.5235 5.7831 10.4283 5.7715L8.96913 5.59385C8.21572 5.50213 7.62087 4.91041 7.52516 4.15749Z" fill="url(#paint6_linear_56_576)"/>
<path d="M21 15.361C21 14.3894 21.2696 13.4369 21.7788 12.6094L24.7275 7.81784C25.1966 7.05545 25.1692 6.08747 24.6577 5.35285L23.0997 3.11556C23.0543 3.05039 23.0669 2.96124 23.1285 2.91116C23.195 2.85717 23.2929 2.86885 23.3448 2.93696L25.3405 5.55628C25.8912 6.27907 25.9531 7.26216 25.4974 8.0483L22.833 12.6445C22.3692 13.4445 22.125 14.3528 22.125 15.2775V19.5H21V15.361Z" fill="url(#paint7_linear_56_576)"/>
<path d="M21 15.361C21 14.3894 21.2696 13.4369 21.7788 12.6094L24.7275 7.81784C25.1966 7.05545 25.1692 6.08747 24.6577 5.35285L23.0997 3.11556C23.0543 3.05039 23.0669 2.96124 23.1285 2.91116C23.195 2.85717 23.2929 2.86885 23.3448 2.93696L25.3405 5.55628C25.8912 6.27907 25.9531 7.26216 25.4974 8.0483L22.833 12.6445C22.3692 13.4445 22.125 14.3528 22.125 15.2775V19.5H21V15.361Z" fill="url(#paint8_linear_56_576)" fill-opacity="0.2"/>
<path d="M20.304 19.0931C20.3206 18.899 20.4829 18.75 20.6777 18.75H22.4474C22.6421 18.75 22.8044 18.899 22.821 19.0931L23.4494 26.445C23.5439 27.5505 22.672 28.5 21.5625 28.5C20.453 28.5 19.5812 27.5505 19.6757 26.445L20.304 19.0931Z" fill="url(#paint9_linear_56_576)"/>
<path d="M20.304 19.0931C20.3206 18.899 20.4829 18.75 20.6777 18.75H22.4474C22.6421 18.75 22.8044 18.899 22.821 19.0931L23.4494 26.445C23.5439 27.5505 22.672 28.5 21.5625 28.5C20.453 28.5 19.5812 27.5505 19.6757 26.445L20.304 19.0931Z" fill="url(#paint10_linear_56_576)" fill-opacity="0.6"/>
<path d="M20.304 19.0931C20.3206 18.899 20.4829 18.75 20.6777 18.75H22.4474C22.6421 18.75 22.8044 18.899 22.821 19.0931L23.4494 26.445C23.5439 27.5505 22.672 28.5 21.5625 28.5C20.453 28.5 19.5812 27.5505 19.6757 26.445L20.304 19.0931Z" fill="url(#paint11_linear_56_576)" fill-opacity="0.5"/>
<path d="M9.42903 19.0931C9.44561 18.899 9.60794 18.75 9.80266 18.75H11.5724C11.7671 18.75 11.9294 18.899 11.946 19.0931L12.5744 26.445C12.6689 27.5505 11.797 28.5 10.6875 28.5C9.578 28.5 8.70617 27.5505 8.80066 26.445L9.42903 19.0931Z" fill="url(#paint12_linear_56_576)"/>
<path d="M9.42903 19.0931C9.44561 18.899 9.60794 18.75 9.80266 18.75H11.5724C11.7671 18.75 11.9294 18.899 11.946 19.0931L12.5744 26.445C12.6689 27.5505 11.797 28.5 10.6875 28.5C9.578 28.5 8.70617 27.5505 8.80066 26.445L9.42903 19.0931Z" fill="url(#paint13_linear_56_576)" fill-opacity="0.6"/>
<path d="M9.42903 19.0931C9.44561 18.899 9.60794 18.75 9.80266 18.75H11.5724C11.7671 18.75 11.9294 18.899 11.946 19.0931L12.5744 26.445C12.6689 27.5505 11.797 28.5 10.6875 28.5C9.578 28.5 8.70617 27.5505 8.80066 26.445L9.42903 19.0931Z" fill="url(#paint14_linear_56_576)" fill-opacity="0.5"/>
</g>
<defs>
<filter id="filter0_f_56_576" x="8.35895" y="4.35889" width="26.3038" height="26.3038" filterUnits="userSpaceOnUse" color-interpolation-filters="sRGB">
<feFlood flood-opacity="0" result="BackgroundImageFix"/>
<feBlend mode="normal" in="SourceGraphic" in2="BackgroundImageFix" result="shape"/>
<feGaussianBlur stdDeviation="2" result="effect1_foregroundBlur_56_576"/>
</filter>
<filter id="filter1_f_56_576" x="-0.255615" y="-1.29102" width="14.8507" height="14.5082" filterUnits="userSpaceOnUse" color-interpolation-filters="sRGB">
<feFlood flood-opacity="0" result="BackgroundImageFix"/>
<feBlend mode="normal" in="SourceGraphic" in2="BackgroundImageFix" result="shape"/>
<feGaussianBlur stdDeviation="2" result="effect1_foregroundBlur_56_576"/>
</filter>
<linearGradient id="paint0_linear_56_576" x1="11.0625" y1="15.9063" x2="10.2304" y2="17.9033" gradientUnits="userSpaceOnUse">
<stop stop-color="#B9BED9"/>
<stop offset="1" stop-color="#D3D7E8"/>
</linearGradient>
<linearGradient id="paint1_linear_56_576" x1="10.6875" y1="1.5" x2="10.6875" y2="16.125" gradientUnits="userSpaceOnUse">
<stop stop-color="#E9ECF7"/>
<stop offset="1" stop-color="#CDD1E4"/>
</linearGradient>
<linearGradient id="paint2_linear_56_576" x1="10.6875" y1="2.625" x2="10.6875" y2="15" gradientUnits="userSpaceOnUse">
<stop stop-color="white"/>
<stop offset="1" stop-color="#E4E6ED"/>
</linearGradient>
<linearGradient id="paint3_linear_56_576" x1="12.0351" y1="6.91503" x2="12.1076" y2="16.4984" gradientUnits="userSpaceOnUse">
<stop stop-color="white" stop-opacity="0"/>
<stop offset="1" stop-color="white"/>
</linearGradient>
<linearGradient id="paint4_linear_56_576" x1="17.5295" y1="14.8765" x2="17.8592" y2="28.2501" gradientUnits="userSpaceOnUse">
<stop stop-color="white" stop-opacity="0"/>
<stop offset="1" stop-color="white"/>
</linearGradient>
<linearGradient id="paint5_linear_56_576" x1="7.16975" y1="2.70898" x2="7.16975" y2="9.21719" gradientUnits="userSpaceOnUse">
<stop stop-color="white"/>
<stop offset="1" stop-color="white"/>
</linearGradient>
<linearGradient id="paint6_linear_56_576" x1="7.16975" y1="2.70898" x2="7.16975" y2="9.21719" gradientUnits="userSpaceOnUse">
<stop stop-color="white"/>
<stop offset="1" stop-color="white"/>
</linearGradient>
<linearGradient id="paint7_linear_56_576" x1="25.2404" y1="20.9085" x2="21.0277" y2="4.60259" gradientUnits="userSpaceOnUse">
<stop stop-color="#B9BED9"/>
<stop offset="1" stop-color="#D3D7E8"/>
</linearGradient>
<linearGradient id="paint8_linear_56_576" x1="21.4038" y1="12.6585" x2="22.0083" y2="13.0629" gradientUnits="userSpaceOnUse">
<stop stop-color="white"/>
<stop offset="1" stop-color="white" stop-opacity="0"/>
</linearGradient>
<linearGradient id="paint9_linear_56_576" x1="19.5" y1="23.8571" x2="23.2523" y2="24.0442" gradientUnits="userSpaceOnUse">
<stop stop-color="#C7C0FA"/>
<stop offset="0.3125" stop-color="#D6D0FB"/>
<stop offset="1" stop-color="#8574F1"/>
</linearGradient>
<linearGradient id="paint10_linear_56_576" x1="21.375" y1="28.125" x2="21.375" y2="23.625" gradientUnits="userSpaceOnUse">
<stop stop-color="#9080F3"/>
<stop offset="0.648933" stop-color="#9080F3" stop-opacity="0"/>
</linearGradient>
<linearGradient id="paint11_linear_56_576" x1="21.5625" y1="18.75" x2="21.5625" y2="19.3125" gradientUnits="userSpaceOnUse">
<stop stop-color="white"/>
<stop offset="1" stop-color="white" stop-opacity="0"/>
</linearGradient>
<linearGradient id="paint12_linear_56_576" x1="8.62502" y1="23.8571" x2="12.3773" y2="24.0442" gradientUnits="userSpaceOnUse">
<stop stop-color="#C7C0FA"/>
<stop offset="0.3125" stop-color="#D6D0FB"/>
<stop offset="1" stop-color="#8574F1"/>
</linearGradient>
<linearGradient id="paint13_linear_56_576" x1="10.5" y1="28.125" x2="10.5" y2="23.625" gradientUnits="userSpaceOnUse">
<stop stop-color="#9080F3"/>
<stop offset="0.648933" stop-color="#9080F3" stop-opacity="0"/>
</linearGradient>
<linearGradient id="paint14_linear_56_576" x1="10.6875" y1="18.75" x2="10.6875" y2="19.3125" gradientUnits="userSpaceOnUse">
<stop stop-color="white"/>
<stop offset="1" stop-color="white" stop-opacity="0"/>
</linearGradient>
<clipPath id="clip0_56_576">
<rect width="30" height="30" fill="white"/>
</clipPath>
</defs>
</svg>
