<svg width="32" height="30" viewBox="0 0 32 30" fill="none" xmlns="http://www.w3.org/2000/svg">
<g id="SVG" clip-path="url(#clip0_11_1680)">
<g id="Clip path group">
<mask id="mask0_11_1680" style="mask-type:luminance" maskUnits="userSpaceOnUse" x="0" y="0" width="32" height="30">
<g id="clip0_2108_10928">
<path id="Vector" d="M31.0625 0H0.258942V30H31.0625V0Z" fill="white"/>
</g>
</mask>
<g mask="url(#mask0_11_1680)">
<g id="Group">
<g id="Mask group">
<mask id="mask1_11_1680" style="mask-type:luminance" maskUnits="userSpaceOnUse" x="0" y="0" width="32" height="30">
<g id="Group_2">
<path id="Vector_2" d="M31.0625 0H0.258942V30H31.0625V0Z" fill="white"/>
</g>
</mask>
<g mask="url(#mask1_11_1680)">
<g id="Group_3">
<path id="Vector_3" fill-rule="evenodd" clip-rule="evenodd" d="M18.8611 2.38967C16.9426 3.1902 14.1735 3.1902 12.2549 2.38966C10.6961 1.73922 8.95243 1.67891 7.34355 2.36048C3.94833 3.7988 2.42552 8.00202 3.90326 11.7937L3.90321 11.7963L4.36436 12.7729C5.9232 16.074 7.0982 19.5346 7.86747 23.0901L8.59924 26.4722C8.85247 27.4445 9.74736 28.125 10.7728 28.125C11.8741 28.125 12.8126 27.3425 12.9875 26.2787L14.0191 20.0011C14.1406 19.2617 14.7927 18.7181 15.558 18.7181C16.3234 18.7181 16.9755 19.2618 17.097 20.0011L18.1286 26.2787C18.3035 27.3425 19.2419 28.125 20.3433 28.125C21.3687 28.125 22.2636 27.4445 22.5169 26.4722L23.2487 23.0901C24.0179 19.5346 25.1929 16.074 26.7518 12.7729L27.2128 11.7963V11.7937C28.6906 8.00202 27.1677 3.7988 23.7725 2.36048C22.1637 1.6789 20.42 1.73922 18.8611 2.38967Z" fill="url(#paint0_linear_11_1680)"/>
<g id="Group_4">
<path id="Vector_4" d="M7.97205 4.63705L7.87379 4.18033C7.81983 3.92958 7.59278 3.75 7.32972 3.75C7.05929 3.75 6.82809 3.93955 6.78198 4.19908L6.72525 4.51835C6.49035 5.84055 5.44339 6.88518 4.09188 7.14585L3.37403 7.28433C3.13004 7.3314 2.95425 7.53983 2.95425 7.78205C2.95425 8.03188 3.14098 8.24453 3.39436 8.2833L3.95054 8.36845C5.37418 8.58633 6.4942 9.66828 6.72949 11.053L6.7854 11.3819C6.82945 11.6411 7.0596 11.8312 7.32939 11.8312C7.59209 11.8312 7.81834 11.6507 7.86999 11.3998L7.99218 10.8062C8.24882 9.5594 9.27258 8.59833 10.5615 8.39435L11.2487 8.2856C11.5023 8.24545 11.6887 8.03207 11.6887 7.78177C11.6887 7.53935 11.5136 7.33038 11.2697 7.28175L10.5525 7.1387C9.25726 6.88035 8.24328 5.89735 7.97205 4.63705Z" fill="url(#paint1_linear_11_1680)"/>
</g>
<path id="Vector_5" d="M7.7746 5.54862L7.56694 3.95762C7.55143 3.83895 7.44778 3.75 7.32492 3.75C7.19917 3.75 7.094 3.84313 7.08209 3.96508L6.92774 5.54502C6.83689 6.47475 6.09221 7.2167 5.13992 7.32635L3.16721 7.55345C3.04574 7.56743 2.95425 7.6677 2.95425 7.7868C2.95425 7.90912 3.05062 8.01097 3.17581 8.02098L5.03647 8.16955C6.0399 8.24965 6.83899 9.02057 6.93074 9.99702L7.08291 11.6162C7.09436 11.738 7.19922 11.8312 7.32482 11.8312C7.44757 11.8312 7.55102 11.7421 7.56593 11.6234L7.77042 9.9945C7.89376 9.012 8.70767 8.24845 9.72039 8.16515L11.4671 8.0215C11.5923 8.0112 11.6887 7.90915 11.6887 7.78667C11.6887 7.66755 11.5974 7.56712 11.4759 7.55272L9.6156 7.33215C8.65505 7.21825 7.89664 6.4835 7.7746 5.54862Z" fill="url(#paint2_linear_11_1680)"/>
<g id="Group_5">
<path id="Vector_6" d="M23.0914 15.9328L23.0296 15.6456C22.9956 15.4879 22.8529 15.375 22.6875 15.375C22.5174 15.375 22.3721 15.4942 22.3431 15.6574L22.3074 15.8581C22.1597 16.6895 21.5014 17.3463 20.6516 17.5102L20.2003 17.5973C20.0469 17.6269 19.9363 17.7579 19.9363 17.9102C19.9363 18.0673 20.0537 18.201 20.2131 18.2254L20.5628 18.2789C21.4579 18.4159 22.1622 19.0962 22.3102 19.9669L22.3453 20.1737C22.373 20.3367 22.5177 20.4562 22.6873 20.4562C22.8525 20.4562 22.9947 20.3427 23.0272 20.185L23.1041 19.8117C23.2654 19.0278 23.9092 18.4235 24.7195 18.2952L25.1516 18.2268C25.3111 18.2016 25.4283 18.0674 25.4283 17.9101C25.4283 17.7576 25.3182 17.6262 25.1648 17.5957L24.7139 17.5057C23.8995 17.3433 23.2619 16.7252 23.0914 15.9328Z" fill="url(#paint3_linear_11_1680)"/>
</g>
<path id="Vector_7" d="M22.9672 16.5059L22.8367 15.5055C22.8269 15.4309 22.7617 15.375 22.6845 15.375C22.6055 15.375 22.5393 15.4336 22.5318 15.5102L22.4347 16.5037C22.3776 17.0882 21.9094 17.5548 21.3106 17.6237L20.0702 17.7665C19.9938 17.7753 19.9363 17.8383 19.9363 17.9132C19.9363 17.9901 19.9969 18.0542 20.0757 18.0605L21.2456 18.1539C21.8766 18.2042 22.379 18.689 22.4367 19.3029L22.5324 20.3211C22.5395 20.3976 22.6055 20.4563 22.6844 20.4563C22.7616 20.4563 22.8266 20.4002 22.836 20.3256L22.9646 19.3014C23.0422 18.6836 23.5539 18.2035 24.1907 18.1511L25.289 18.0608C25.3677 18.0543 25.4283 17.9901 25.4283 17.9131C25.4283 17.8382 25.3709 17.7751 25.2945 17.766L24.1248 17.6273C23.5208 17.5557 23.044 17.0937 22.9672 16.5059Z" fill="url(#paint4_linear_11_1680)"/>
</g>
</g>
</g>
</g>
</g>
</g>
</g>
<defs>
<linearGradient id="paint0_linear_11_1680" x1="25.5179" y1="7.5" x2="82.1343" y2="109.587" gradientUnits="userSpaceOnUse">
<stop stop-color="#F0F6F9"/>
<stop offset="1" stop-color="#CDDFF2"/>
</linearGradient>
<linearGradient id="paint1_linear_11_1680" x1="28.5091" y1="15" x2="28.5091" y2="47.3248" gradientUnits="userSpaceOnUse">
<stop stop-color="white"/>
<stop offset="1" stop-color="white"/>
</linearGradient>
<linearGradient id="paint2_linear_11_1680" x1="28.5091" y1="15" x2="28.5091" y2="47.3248" gradientUnits="userSpaceOnUse">
<stop stop-color="white"/>
<stop offset="1" stop-color="white"/>
</linearGradient>
<linearGradient id="paint3_linear_11_1680" x1="89.9526" y1="61.5" x2="89.9526" y2="81.8248" gradientUnits="userSpaceOnUse">
<stop stop-color="white"/>
<stop offset="1" stop-color="white"/>
</linearGradient>
<linearGradient id="paint4_linear_11_1680" x1="89.9526" y1="61.5" x2="89.9526" y2="81.8248" gradientUnits="userSpaceOnUse">
<stop stop-color="white"/>
<stop offset="1" stop-color="white"/>
</linearGradient>
<clipPath id="clip0_11_1680">
<rect width="30.8036" height="30" fill="white" transform="translate(0.258942)"/>
</clipPath>
</defs>
</svg>
