<svg width="31" height="30" viewBox="0 0 31 30" fill="none" xmlns="http://www.w3.org/2000/svg">
<g id="SVG" clip-path="url(#clip0_11_1652)">
<g id="Clip path group">
<mask id="mask0_11_1652" style="mask-type:luminance" maskUnits="userSpaceOnUse" x="0" y="0" width="31" height="30">
<g id="clip0_2108_10908">
<path id="Vector" d="M31 0H0V30H31V0Z" fill="white"/>
</g>
</mask>
<g mask="url(#mask0_11_1652)">
<g id="Group">
<g id="Mask group">
<mask id="mask1_11_1652" style="mask-type:luminance" maskUnits="userSpaceOnUse" x="0" y="0" width="31" height="30">
<g id="Group_2">
<path id="Vector_2" d="M31 0H0V30H31V0Z" fill="white"/>
</g>
</mask>
<g mask="url(#mask1_11_1652)">
<g id="Group_3">
<path id="Vector_3" d="M28.3278 9.3679C28.1821 6.01805 25.3332 3.375 21.8686 3.375C18.3406 3.375 15.4641 6.1122 15.4046 9.5259L15.1797 22.4368C15.1432 24.5323 16.8885 26.25 19.0542 26.25H25.0214C27.2255 26.25 28.9858 24.4732 28.893 22.3421L28.3278 9.3679Z" fill="url(#paint0_linear_11_1652)"/>
<path id="Vector_4" d="M2.67615 9.32148C2.82108 5.99755 5.64776 3.375 9.08556 3.375C12.6285 3.375 15.5007 6.1545 15.5007 9.58315V22.5C15.5007 24.5711 13.7657 26.25 11.6257 26.25H5.98008C3.77588 26.25 2.01561 24.4731 2.10853 22.3419L2.67615 9.32148Z" fill="url(#paint1_linear_11_1652)"/>
<path id="Vector_5" fill-rule="evenodd" clip-rule="evenodd" d="M0.751787 13.344C1.0549 12.9173 1.65802 12.8092 2.09891 13.1025C3.61846 14.1136 8.61814 16.3126 15.6812 16.3126C22.745 16.3126 27.489 14.1137 28.8736 13.1216C29.3038 12.8135 29.9103 12.9011 30.2286 13.3172C30.5469 13.7334 30.4565 14.3205 30.0266 14.6286C28.271 15.8865 23.111 18.1876 15.6812 18.1876C8.25084 18.1876 2.86351 15.8866 1.00125 14.6476C0.56037 14.3543 0.44868 13.7706 0.751787 13.344Z" fill="url(#paint2_linear_11_1652)"/>
<g id="Group_4" opacity="0.4">
<path id="Vector_6" fill-rule="evenodd" clip-rule="evenodd" d="M30.2482 13.344C29.9452 12.9173 29.342 12.8092 28.9013 13.1025C27.3818 14.1136 22.382 16.3126 15.3188 16.3126C8.25508 16.3126 3.51107 14.1137 2.12649 13.1216C1.6965 12.8135 1.08983 12.9011 0.771471 13.3172C0.453107 13.7334 0.543606 14.3205 0.973602 14.6286C2.72928 15.8865 7.88915 18.1876 15.3188 18.1876C22.7493 18.1876 28.1366 15.8866 29.9989 14.6476C30.4397 14.3543 30.5515 13.7706 30.2482 13.344Z" fill="url(#paint3_radial_11_1652)" fill-opacity="0.3"/>
<path id="Vector_7" fill-rule="evenodd" clip-rule="evenodd" d="M30.2482 13.344C29.9452 12.9173 29.342 12.8092 28.9013 13.1025C27.3818 14.1136 22.382 16.3126 15.3188 16.3126C8.25508 16.3126 3.51107 14.1137 2.12649 13.1216C1.6965 12.8135 1.08983 12.9011 0.771471 13.3172C0.453107 13.7334 0.543606 14.3205 0.973602 14.6286C2.72928 15.8865 7.88915 18.1876 15.3188 18.1876C22.7493 18.1876 28.1366 15.8866 29.9989 14.6476C30.4397 14.3543 30.5515 13.7706 30.2482 13.344Z" fill="url(#paint4_radial_11_1652)" fill-opacity="0.3"/>
</g>
<g id="Group_5" opacity="0.4">
<path id="Vector_8" fill-rule="evenodd" clip-rule="evenodd" d="M0.751787 13.344C1.0549 12.9173 1.65802 12.8092 2.0989 13.1025C3.61846 14.1136 8.61817 16.3126 15.6813 16.3126C22.745 16.3126 27.489 14.1137 28.8736 13.1216C29.3035 12.8135 29.9103 12.9011 30.2286 13.3172C30.5471 13.7334 30.4565 14.3205 30.0266 14.6286C28.2707 15.8865 23.111 18.1876 15.6813 18.1876C8.25082 18.1876 2.86351 15.8866 1.00125 14.6476C0.56037 14.3543 0.44868 13.7706 0.751787 13.344Z" fill="url(#paint5_radial_11_1652)" fill-opacity="0.3"/>
<path id="Vector_9" fill-rule="evenodd" clip-rule="evenodd" d="M0.751787 13.344C1.0549 12.9173 1.65802 12.8092 2.0989 13.1025C3.61846 14.1136 8.61817 16.3126 15.6813 16.3126C22.745 16.3126 27.489 14.1137 28.8736 13.1216C29.3035 12.8135 29.9103 12.9011 30.2286 13.3172C30.5471 13.7334 30.4565 14.3205 30.0266 14.6286C28.2707 15.8865 23.111 18.1876 15.6813 18.1876C8.25082 18.1876 2.86351 15.8866 1.00125 14.6476C0.56037 14.3543 0.44868 13.7706 0.751787 13.344Z" fill="url(#paint6_radial_11_1652)" fill-opacity="0.3"/>
</g>
<g id="Group_6">
<path id="Vector_10" d="M5.42096 15.7695C5.42096 14.3198 6.63538 13.1445 8.13346 13.1445H9.9552C11.4533 13.1445 12.6677 14.3198 12.6677 15.7695V17.5325C12.6677 18.9823 11.4533 20.1575 9.9552 20.1575H8.13346C6.63538 20.1575 5.42096 18.9823 5.42096 17.5325V15.7695Z" fill="url(#paint7_linear_11_1652)"/>
<path id="Vector_11" d="M6.45428 15.7695C6.45428 14.8721 7.20606 14.1445 8.13345 14.1445H9.95519C10.8826 14.1445 11.6344 14.8721 11.6344 15.7695V17.5325C11.6344 18.43 10.8826 19.1575 9.95519 19.1575H8.13345C7.20606 19.1575 6.45428 18.43 6.45428 17.5325V15.7695Z" stroke="url(#paint8_radial_11_1652)" stroke-width="2"/>
</g>
<g id="Group_7">
<path id="Vector_12" d="M18.5959 15.7695C18.5959 14.3198 19.8104 13.1445 21.3084 13.1445H23.1302C24.6283 13.1445 25.8426 14.3198 25.8426 15.7695V17.5325C25.8426 18.9823 24.6283 20.1575 23.1302 20.1575H21.3084C19.8104 20.1575 18.5959 18.9823 18.5959 17.5325V15.7695Z" fill="url(#paint9_linear_11_1652)"/>
<path id="Vector_13" d="M19.6293 15.7695C19.6293 14.8721 20.3811 14.1445 21.3084 14.1445H23.1302C24.0576 14.1445 24.8094 14.8721 24.8094 15.7695V17.5325C24.8094 18.43 24.0576 19.1575 23.1302 19.1575H21.3084C20.3811 19.1575 19.6293 18.43 19.6293 17.5325V15.7695Z" stroke="url(#paint10_radial_11_1652)" stroke-width="2"/>
</g>
</g>
</g>
</g>
</g>
</g>
</g>
</g>
<defs>
<linearGradient id="paint0_linear_11_1652" x1="60.4529" y1="42.75" x2="93.868" y2="74.0771" gradientUnits="userSpaceOnUse">
<stop stop-color="#F0F6F9"/>
<stop offset="1" stop-color="#CDDFF2"/>
</linearGradient>
<linearGradient id="paint1_linear_11_1652" x1="4.65261" y1="38.25" x2="47.7582" y2="88.8407" gradientUnits="userSpaceOnUse">
<stop stop-color="#F0F6F9"/>
<stop offset="1" stop-color="#CDDFF2"/>
</linearGradient>
<linearGradient id="paint2_linear_11_1652" x1="62.0004" y1="55.5005" x2="61.2745" y2="75.0023" gradientUnits="userSpaceOnUse">
<stop stop-color="#E3E7F6"/>
<stop offset="1" stop-color="#C7CCDF"/>
</linearGradient>
<radialGradient id="paint3_radial_11_1652" cx="0" cy="0" r="1" gradientUnits="userSpaceOnUse" gradientTransform="translate(86.8 67.5005) rotate(177.947) scale(20.9385 111.455)">
<stop stop-color="#ADB6DA"/>
<stop offset="1" stop-color="#626D97" stop-opacity="0"/>
</radialGradient>
<radialGradient id="paint4_radial_11_1652" cx="0" cy="0" r="1" gradientUnits="userSpaceOnUse" gradientTransform="translate(86.8 67.5005) rotate(177.947) scale(20.9385 111.455)">
<stop stop-color="#ADB6DA"/>
<stop offset="1" stop-color="#626D97" stop-opacity="0"/>
</radialGradient>
<radialGradient id="paint5_radial_11_1652" cx="0" cy="0" r="1" gradientUnits="userSpaceOnUse" gradientTransform="translate(37.2004 67.5005) rotate(2.05274) scale(20.9385 111.455)">
<stop stop-color="#ADB6DA"/>
<stop offset="1" stop-color="#626D97" stop-opacity="0"/>
</radialGradient>
<radialGradient id="paint6_radial_11_1652" cx="0" cy="0" r="1" gradientUnits="userSpaceOnUse" gradientTransform="translate(37.2004 67.5005) rotate(2.05274) scale(20.9385 111.455)">
<stop stop-color="#ADB6DA"/>
<stop offset="1" stop-color="#626D97" stop-opacity="0"/>
</radialGradient>
<linearGradient id="paint7_linear_11_1652" x1="33.3291" y1="52.5005" x2="43.568" y2="81.2184" gradientUnits="userSpaceOnUse">
<stop stop-color="#F2F5FF"/>
<stop offset="1" stop-color="#D6DBF1"/>
</linearGradient>
<radialGradient id="paint8_radial_11_1652" cx="0" cy="0" r="1" gradientUnits="userSpaceOnUse" gradientTransform="translate(45.729 33.0006) rotate(127.333) scale(39.6163 39.9812)">
<stop stop-color="white"/>
<stop offset="1" stop-color="white" stop-opacity="0"/>
</radialGradient>
<linearGradient id="paint9_linear_11_1652" x1="86.0291" y1="52.5005" x2="96.2681" y2="81.2184" gradientUnits="userSpaceOnUse">
<stop stop-color="#F2F5FF"/>
<stop offset="1" stop-color="#D6DBF1"/>
</linearGradient>
<radialGradient id="paint10_radial_11_1652" cx="0" cy="0" r="1" gradientUnits="userSpaceOnUse" gradientTransform="translate(98.4291 33.0006) rotate(127.333) scale(39.6163 39.9812)">
<stop stop-color="white"/>
<stop offset="1" stop-color="white" stop-opacity="0"/>
</radialGradient>
<clipPath id="clip0_11_1652">
<rect width="31" height="30" fill="white"/>
</clipPath>
</defs>
</svg>
