<svg width="31" height="30" viewBox="0 0 31 30" fill="none" xmlns="http://www.w3.org/2000/svg">
<g id="80 /  tooth-xray" clip-path="url(#clip0_56_562)">
<rect id="Rectangle 715" width="31" height="30" rx="15" fill="#1B2C3B"/>
<path id="Union" fill-rule="evenodd" clip-rule="evenodd" d="M18.2235 4.91909C16.6416 5.57096 14.3584 5.57095 12.7764 4.91908C11.491 4.38944 10.0533 4.34032 8.72671 4.89532C5.92718 6.06652 4.67153 9.48914 5.89 12.5766C5.89027 12.5773 5.89026 12.5781 5.88997 12.5788L6.27021 13.374C7.55555 16.0621 8.5244 18.88 9.1587 21.7751L9.76208 24.5292C9.97089 25.3209 10.7088 25.875 11.5543 25.875C12.4625 25.875 13.2362 25.2379 13.3804 24.3716L14.2311 19.2598C14.3312 18.6578 14.8689 18.2151 15.5 18.2151C16.1311 18.2151 16.6688 18.6578 16.7689 19.2598L17.6196 24.3716C17.7637 25.2379 18.5375 25.875 19.4456 25.875C20.2912 25.875 21.0291 25.3209 21.2379 24.5292L21.8413 21.7751C22.4756 18.88 23.4444 16.0621 24.7298 13.374L25.11 12.5788C25.1097 12.5781 25.1097 12.5773 25.11 12.5766C26.3284 9.48914 25.0728 6.06652 22.2733 4.89532C20.9467 4.34032 19.5089 4.38944 18.2235 4.91909Z" fill="url(#paint0_linear_56_562)"/>
<path id="Union_2" d="M14.227 16.661C14.6295 16.4694 15.0659 16.3798 15.5 16.3922C15.9341 16.3798 16.3705 16.4694 16.773 16.661C17.7612 17.1315 18.4336 18.0914 18.545 19.1906L18.9228 22.9177C18.9384 23.0712 19.0517 23.1999 19.2064 23.2383C19.4462 23.298 19.6764 23.1211 19.6764 22.8819V21.1677C19.6764 19.1298 20.0632 17.1109 20.8157 15.2207L22.2557 11.6034C23.1581 9.33656 21.1326 6.99319 18.7918 7.59604L17.0326 8.04911C16.5295 8.17867 16.0151 8.24681 15.5 8.25352C14.9849 8.24681 14.4704 8.17867 13.9674 8.04911L12.2082 7.59604C9.86742 6.99319 7.84189 9.33656 8.7443 11.6034L10.1843 15.2207C10.9368 17.1109 11.3235 19.1298 11.3235 21.1677V22.8819C11.3235 23.1211 11.5537 23.298 11.7936 23.2383C11.9483 23.1999 12.0616 23.0712 12.0772 22.9177L12.455 19.1906C12.5664 18.0914 13.2388 17.1315 14.227 16.661Z" fill="url(#paint1_radial_56_562)"/>
<path id="Ellipse 2686" d="M31 11.625C31 11.625 24.0604 14.2229 15.5 14.2229C6.93959 14.2229 0 11.625 0 11.625V25.5H31V11.625Z" fill="url(#paint2_linear_56_562)"/>
</g>
<defs>
<linearGradient id="paint0_linear_56_562" x1="15.5" y1="4.5" x2="15.5" y2="25.875" gradientUnits="userSpaceOnUse">
<stop stop-color="#486982"/>
<stop offset="1" stop-color="#3A556A"/>
</linearGradient>
<radialGradient id="paint1_radial_56_562" cx="0" cy="0" r="1" gradientUnits="userSpaceOnUse" gradientTransform="translate(15.5 16.5775) rotate(-109.026) scale(9.65417 8.46743)">
<stop stop-color="#375168"/>
<stop offset="1" stop-color="#2C4255"/>
</radialGradient>
<linearGradient id="paint2_linear_56_562" x1="15.5" y1="11.625" x2="15.5" y2="23.288" gradientUnits="userSpaceOnUse">
<stop stop-color="#466780"/>
<stop offset="1" stop-color="#486881" stop-opacity="0"/>
</linearGradient>
<clipPath id="clip0_56_562">
<rect width="31" height="30" fill="white"/>
</clipPath>
</defs>
</svg>
